<?xml version="1.0" encoding="UTF-8" standalone="no" ?>
<!DOCTYPE svg PUBLIC "-//W3C//DTD SVG 1.1//EN" "http://www.w3.org/Graphics/SVG/1.1/DTD/svg11.dtd">
<svg xmlns="http://www.w3.org/2000/svg" xmlns:xlink="http://www.w3.org/1999/xlink" version="1.1" width="640" height="480" viewBox="0 0 640 480" xml:space="preserve">
<desc>Created with Fabric.js 3.6.6</desc>
<defs>
</defs>
<g transform="matrix(2.66 0 0 2.66 320.28 241.22)"  >
<g style=""   >
		<g transform="matrix(1.96 0 0 1.96 0 0)"  >
<path style="stroke: none; stroke-width: 1; stroke-dasharray: none; stroke-linecap: butt; stroke-dashoffset: 0; stroke-linejoin: miter; stroke-miterlimit: 4; fill: rgb(92,8,132); fill-rule: nonzero; opacity: 1;"  transform=" translate(-106.6, -37.62)" d="M 71.0325 23.631 L 46.552 47.2885 L 54.7431 47.3283 L 62.921 47.3548 V 61.2148 V 75.0614 L 63.6246 75.1544 C 64.5407 75.2606 110.502 75.2606 134.783 75.1411 L 153.993 75.0614 V 66.3127 V 57.5772 L 160.326 57.5507 L 166.658 57.5108 L 148.948 40.9161 C 139.217 31.7823 131.199 24.2948 131.132 24.2815 C 131.079 24.2549 129.99 25.2241 128.742 26.4322 C 127.481 27.6535 126.419 28.6227 126.366 28.6094 C 126.313 28.5828 119.423 22.1441 111.046 14.2981 C 102.682 6.45207 95.7521 0.0133133 95.6725 0.0000305176 C 95.5795 -0.0132446 84.4942 10.6207 71.0325 23.631 Z M 111.099 16.8338 L 126.406 31.1849 L 127.03 30.614 C 127.362 30.2954 128.424 29.2732 129.366 28.3439 L 131.092 26.6579 L 146.532 41.1152 C 155.015 49.0674 161.959 55.6257 161.959 55.6788 C 161.959 55.7319 159.755 55.7982 157.047 55.8248 L 152.134 55.8514 V 64.6134 V 73.3754 H 108.457 H 64.7796 V 59.4358 V 45.4962 L 57.9559 45.4697 L 51.1321 45.4298 L 73.3558 23.9496 C 85.5828 12.1474 95.6326 2.4826 95.6857 2.4826 C 95.7388 2.4826 102.669 8.93465 111.099 16.8338 Z" stroke-linecap="round" />
</g>
		<g transform="matrix(1.96 0 0 1.96 -0.02 1.39)"  >
<path style="stroke: none; stroke-width: 1; stroke-dasharray: none; stroke-linecap: butt; stroke-dashoffset: 0; stroke-linejoin: miter; stroke-miterlimit: 4; fill: rgb(92,8,132); fill-rule: nonzero; opacity: 1;"  transform=" translate(-106.59, -38.33)" d="M 76.1305 24.3479 L 56.6416 43.173 L 61.8059 43.2393 L 66.9701 43.3057 L 67.01 57.2055 L 67.0365 71.1185 H 73.4753 H 79.9141 V 64.016 C 79.9141 55.8115 79.9672 56.2496 78.7192 55.3336 C 76.8739 53.9927 75.7587 51.7093 75.7455 49.2798 C 75.7322 47.4876 76.1836 45.9874 77.1261 44.713 L 77.551 44.1421 L 78.1882 45.629 C 78.9184 47.3283 79.1839 47.6602 80.1132 48.0983 C 81.3611 48.6824 82.6356 48.47 83.6313 47.5141 C 84.1225 47.0362 84.3216 46.7176 84.4942 46.1202 C 84.7597 45.1909 84.7066 44.8457 84.0694 43.1331 C 83.8172 42.4561 83.6446 41.8587 83.6844 41.8056 C 83.9499 41.5533 86.0209 42.4295 86.9502 43.1995 C 88.769 44.6864 89.7382 46.7973 89.7382 49.2135 C 89.7382 50.6074 89.4992 51.5633 88.7425 53.1962 C 88.0123 54.776 87.5344 55.9708 87.2556 56.9134 C 87.0697 57.5374 87.0299 58.6127 86.9901 64.3744 L 86.937 71.1185 H 90.6409 H 94.3449 L 94.5573 70.2158 C 95.1149 67.9191 95.1547 66.3127 94.7166 63.4849 C 94.3847 61.2546 94.4909 59.4225 95.075 57.2719 C 95.3804 56.1434 95.553 55.9708 96.5486 55.7983 L 97.0399 55.7053 V 41.5268 V 27.3482 L 96.6416 25.4099 L 96.2566 23.4717 L 96.615 20.8431 L 96.9868 18.2144 L 98.0754 18.1746 C 98.8985 18.1481 99.164 18.1746 99.164 18.3074 C 99.164 18.4003 99.3366 19.6084 99.549 20.9891 L 99.934 23.4849 L 99.6817 25.1311 C 99.4428 26.6844 99.4295 27.5341 99.4561 41.2612 L 99.4959 55.7717 L 99.9605 55.8912 C 100.624 56.0505 100.823 56.2895 101.076 57.1524 C 101.726 59.4225 101.819 61.0687 101.421 63.8168 C 101.076 66.2463 101.116 67.9987 101.554 69.8972 L 101.846 71.1185 H 106.877 H 111.909 L 111.882 61.3741 C 111.842 51.7093 111.842 51.6164 111.564 51.2446 C 110.807 50.2357 109.692 49.9834 108.776 50.634 C 108.284 50.9924 108.178 51.0057 106.426 51.0455 C 103.89 51.1119 104.076 51.3641 104.076 47.8195 C 104.076 45.2573 104.103 44.9917 104.315 44.7926 C 104.514 44.6067 104.859 44.5669 106.253 44.5669 C 107.873 44.5669 107.953 44.5802 108.298 44.8988 C 109.094 45.6423 110.289 45.6688 111.404 44.9652 L 112.095 44.5536 L 114.683 44.5935 C 117.193 44.6333 117.312 44.6466 118.055 44.9917 C 119.888 45.8547 121.627 47.7929 122.755 50.249 C 123.007 50.78 123.193 51.3243 123.167 51.4438 C 123.074 51.8952 122.264 51.6828 120.737 50.8065 C 119.025 49.8241 118.042 49.3462 117.724 49.3462 C 117.365 49.3462 117.007 49.8241 116.741 50.6472 C 116.515 51.3509 116.502 52.1341 116.449 61.2546 L 116.409 71.1185 H 123.06 H 129.698 V 69.7378 C 129.698 66.6844 129.247 65.0648 127.614 62.3167 C 125.516 58.7853 125.131 57.6569 125.41 55.8646 C 125.689 54.0857 126.645 52.6519 128.265 51.5898 C 129.048 51.0853 130.973 50.3153 131.106 50.4481 C 131.145 50.4879 130.867 51.6695 130.482 53.0634 C 129.937 55.0548 129.818 55.6788 129.911 55.9576 C 130.017 56.2629 130.216 56.3824 131.398 56.7674 C 132.154 57.0063 132.792 57.1922 132.818 57.1657 C 132.845 57.1258 133.23 55.8514 133.681 54.3246 C 134.132 52.7846 134.544 51.4836 134.61 51.4305 C 134.73 51.2978 135.5 52.2138 136.137 53.2626 C 136.814 54.391 137.146 55.5593 137.252 57.1657 L 137.332 58.5596 L 138.421 58.8782 L 139.496 59.1969 L 138.978 60.0465 C 136.973 63.3389 136.31 65.463 136.124 69.3528 L 136.031 71.1185 H 142.961 H 149.878 L 149.851 62.3565 L 149.811 53.5945 L 153.183 53.5679 L 156.542 53.5281 L 143.89 41.6728 C 136.934 35.1676 131.199 29.8308 131.132 29.8308 C 131.066 29.8308 129.99 30.8132 128.742 32.0213 C 126.525 34.172 126.472 34.2118 126.207 33.9861 C 126.061 33.8533 119.157 27.4013 110.873 19.635 C 102.576 11.8819 95.7521 5.53605 95.7123 5.53605 C 95.6592 5.53605 86.844 14.006 76.1305 24.3479 Z" stroke-linecap="round" />
</g>
</g>
</g>
</svg>