<svg width="214" height="111" viewBox="0 0 214 111" fill="none" xmlns="http://www.w3.org/2000/svg">
<path d="M71.0325 23.631L46.552 47.2885L54.7431 47.3283L62.921 47.3548V61.2148V75.0614L63.6246 75.1544C64.5407 75.2606 110.502 75.2606 134.783 75.1411L153.993 75.0614V66.3127V57.5772L160.326 57.5507L166.658 57.5108L148.948 40.9161C139.217 31.7823 131.199 24.2948 131.132 24.2815C131.079 24.2549 129.99 25.2241 128.742 26.4322C127.481 27.6535 126.419 28.6227 126.366 28.6094C126.313 28.5828 119.423 22.1441 111.046 14.2981C102.682 6.45207 95.7521 0.0133133 95.6725 3.05176e-05C95.5795 -0.0132446 84.4942 10.6207 71.0325 23.631ZM111.099 16.8338L126.406 31.1849L127.03 30.614C127.362 30.2954 128.424 29.2732 129.366 28.3439L131.092 26.6579L146.532 41.1152C155.015 49.0674 161.959 55.6257 161.959 55.6788C161.959 55.7319 159.755 55.7982 157.047 55.8248L152.134 55.8514V64.6134V73.3754H108.457H64.7796V59.4358V45.4962L57.9559 45.4697L51.1321 45.4298L73.3558 23.9496C85.5828 12.1474 95.6326 2.4826 95.6857 2.4826C95.7388 2.4826 102.669 8.93465 111.099 16.8338Z" fill="#5C0884"/>
<path d="M76.1305 24.3479L56.6416 43.173L61.8059 43.2393L66.9701 43.3057L67.01 57.2055L67.0365 71.1185H73.4753H79.9141V64.016C79.9141 55.8115 79.9672 56.2496 78.7192 55.3336C76.8739 53.9927 75.7587 51.7093 75.7455 49.2798C75.7322 47.4876 76.1836 45.9874 77.1261 44.713L77.551 44.1421L78.1882 45.629C78.9184 47.3283 79.1839 47.6602 80.1132 48.0983C81.3611 48.6824 82.6356 48.47 83.6313 47.5141C84.1225 47.0362 84.3216 46.7176 84.4942 46.1202C84.7597 45.1909 84.7066 44.8457 84.0694 43.1331C83.8172 42.4561 83.6446 41.8587 83.6844 41.8056C83.9499 41.5533 86.0209 42.4295 86.9502 43.1995C88.769 44.6864 89.7382 46.7973 89.7382 49.2135C89.7382 50.6074 89.4992 51.5633 88.7425 53.1962C88.0123 54.776 87.5344 55.9708 87.2556 56.9134C87.0697 57.5374 87.0299 58.6127 86.9901 64.3744L86.937 71.1185H90.6409H94.3449L94.5573 70.2158C95.1149 67.9191 95.1547 66.3127 94.7166 63.4849C94.3847 61.2546 94.4909 59.4225 95.075 57.2719C95.3804 56.1434 95.553 55.9708 96.5486 55.7983L97.0399 55.7053V41.5268V27.3482L96.6416 25.4099L96.2566 23.4717L96.615 20.8431L96.9868 18.2144L98.0754 18.1746C98.8985 18.1481 99.164 18.1746 99.164 18.3074C99.164 18.4003 99.3366 19.6084 99.549 20.9891L99.934 23.4849L99.6817 25.1311C99.4428 26.6844 99.4295 27.5341 99.4561 41.2612L99.4959 55.7717L99.9605 55.8912C100.624 56.0505 100.823 56.2895 101.076 57.1524C101.726 59.4225 101.819 61.0687 101.421 63.8168C101.076 66.2463 101.116 67.9987 101.554 69.8972L101.846 71.1185H106.877H111.909L111.882 61.3741C111.842 51.7093 111.842 51.6164 111.564 51.2446C110.807 50.2357 109.692 49.9834 108.776 50.634C108.284 50.9924 108.178 51.0057 106.426 51.0455C103.89 51.1119 104.076 51.3641 104.076 47.8195C104.076 45.2573 104.103 44.9917 104.315 44.7926C104.514 44.6067 104.859 44.5669 106.253 44.5669C107.873 44.5669 107.953 44.5802 108.298 44.8988C109.094 45.6423 110.289 45.6688 111.404 44.9652L112.095 44.5536L114.683 44.5935C117.193 44.6333 117.312 44.6466 118.055 44.9917C119.888 45.8547 121.627 47.7929 122.755 50.249C123.007 50.78 123.193 51.3243 123.167 51.4438C123.074 51.8952 122.264 51.6828 120.737 50.8065C119.025 49.8241 118.042 49.3462 117.724 49.3462C117.365 49.3462 117.007 49.8241 116.741 50.6472C116.515 51.3509 116.502 52.1341 116.449 61.2546L116.409 71.1185H123.06H129.698V69.7378C129.698 66.6844 129.247 65.0648 127.614 62.3167C125.516 58.7853 125.131 57.6569 125.41 55.8646C125.689 54.0857 126.645 52.6519 128.265 51.5898C129.048 51.0853 130.973 50.3153 131.106 50.4481C131.145 50.4879 130.867 51.6695 130.482 53.0634C129.937 55.0548 129.818 55.6788 129.911 55.9576C130.017 56.2629 130.216 56.3824 131.398 56.7674C132.154 57.0063 132.792 57.1922 132.818 57.1657C132.845 57.1258 133.23 55.8514 133.681 54.3246C134.132 52.7846 134.544 51.4836 134.61 51.4305C134.73 51.2978 135.5 52.2138 136.137 53.2626C136.814 54.391 137.146 55.5593 137.252 57.1657L137.332 58.5596L138.421 58.8782L139.496 59.1969L138.978 60.0465C136.973 63.3389 136.31 65.463 136.124 69.3528L136.031 71.1185H142.961H149.878L149.851 62.3565L149.811 53.5945L153.183 53.5679L156.542 53.5281L143.89 41.6728C136.934 35.1676 131.199 29.8308 131.132 29.8308C131.066 29.8308 129.99 30.8132 128.742 32.0213C126.525 34.172 126.472 34.2118 126.207 33.9861C126.061 33.8533 119.157 27.4013 110.873 19.635C102.576 11.8819 95.7521 5.53605 95.7123 5.53605C95.6592 5.53605 86.844 14.006 76.1305 24.3479Z" fill="#5C0884"/>
<path d="M0 98.2135V110.51H1.47218H2.94436V105.704V100.898H5.95799H8.98029L11.5696 105.704L14.1589 110.51H15.8735H17.5882L17.4843 110.311C17.3197 110 12.3836 100.967 12.2018 100.664L12.0459 100.378L12.6781 100.084C14.1416 99.4085 15.1634 98.4473 15.8129 97.131C16.4451 95.8493 16.575 95.2258 16.575 93.4506C16.575 91.6753 16.4451 91.0518 15.8129 89.7701C14.7304 87.5878 12.6781 86.3235 9.69906 86.0031C9.24874 85.9598 6.87594 85.9165 4.44251 85.9165H0V98.2135ZM8.98895 88.601C11.6302 88.8089 13.0591 89.8827 13.5614 92.0563C13.7779 92.9569 13.6999 94.611 13.4055 95.4163C12.8686 96.9232 11.7688 97.7545 9.90689 98.0836C9.33534 98.1788 8.43472 98.2135 6.05325 98.2135H2.94436V93.4246C2.94436 90.7833 2.97034 88.601 3.00498 88.575C3.09157 88.4884 7.77657 88.5058 8.98895 88.601Z" fill="#5C0884"/>
<path d="M21.563 98.2135V110.51H29.0971H36.6312V109.212V107.913H30.6126H24.594V103.712V99.5125H30.1363H35.6786V98.2135V96.9145H30.1363H24.594V92.7145V88.5144H30.526H36.4667L36.4407 87.2328L36.4147 85.9598L28.9932 85.9338L21.563 85.9165V98.2135Z" fill="#5C0884"/>
<path d="M41.8272 98.2135V110.51H43.2994H44.7715V100.846C44.7715 91.987 44.7802 91.1903 44.9101 91.2163C44.988 91.2336 48.0536 95.5722 51.7341 100.872L58.4108 110.502L59.8657 110.51H61.3119V98.2135V85.9165H59.8397H58.3675V95.6242C58.3675 104.085 58.3502 105.323 58.2376 105.297C58.1684 105.28 55.0854 100.915 51.3963 95.5895L44.6676 85.9165H43.2474H41.8272V98.2135Z" fill="#5C0884"/>
<path d="M65.9016 87.2154V88.5144H69.7553H73.6089V99.5125V110.51L75.1071 110.493L76.5966 110.467L76.6225 99.4865L76.6399 88.5144H80.4935H84.3471V87.2154V85.9165H75.1244H65.9016V87.2154Z" fill="#5C0884"/>
<path d="M92.9117 86.1503C92.6779 86.7478 84.0613 110.225 84.0267 110.355C83.9834 110.502 84.096 110.51 85.5249 110.51H87.075L88.2874 107.09C88.9455 105.211 89.5344 103.626 89.5777 103.583C89.7162 103.444 99.372 103.47 99.4759 103.6C99.5279 103.661 100.099 105.245 100.766 107.107L101.97 110.51H103.511C104.966 110.51 105.053 110.502 105.01 110.355C104.975 110.268 102.957 104.743 100.506 98.0749L96.0553 85.9598L94.5311 85.9338L93.007 85.9165L92.9117 86.1503ZM96.5662 95.2778C97.6314 98.2828 98.5233 100.777 98.532 100.82C98.5493 100.863 96.8087 100.898 94.5311 100.898C92.3142 100.898 90.4956 100.889 90.4956 100.872C90.4956 100.855 91.3703 98.378 92.4441 95.3557C93.5179 92.3334 94.3926 89.8567 94.3926 89.8394C94.3926 89.8221 94.4445 89.8134 94.5052 89.8134C94.5831 89.8134 95.3192 91.7792 96.5662 95.2778Z" fill="#5C0884"/>
<path d="M108.941 98.2135V110.51H116.129H123.317V109.212V107.913L117.627 107.895L111.929 107.869L111.903 96.8885L111.886 85.9165H110.413H108.941V98.2135Z" fill="#5C0884"/>
<path d="M135.189 85.9338C135.189 85.9511 136.696 91.4761 138.541 98.2135L141.901 110.467L143.425 110.493L144.949 110.51L145.07 110.103C145.139 109.87 146.361 105.47 147.789 100.309C149.721 93.312 150.413 90.9392 150.5 90.9565C150.578 90.9738 151.487 94.1 153.314 100.725L156.016 110.467L157.54 110.493L159.065 110.51L159.203 110.06C159.619 108.605 165.75 86.0983 165.75 86.0117C165.75 85.8645 162.84 85.8818 162.78 86.029C162.754 86.0897 161.593 90.5928 160.199 96.0312C158.19 103.877 157.636 105.921 157.532 105.921C157.419 105.921 156.848 103.834 154.787 95.9359L152.18 85.9598L150.5 85.9338L148.82 85.9165L146.222 95.884C144.663 101.859 143.581 105.869 143.511 105.895C143.451 105.921 143.382 105.921 143.356 105.895C143.321 105.86 138.212 86.055 138.212 85.9511C138.212 85.9338 137.527 85.9165 136.696 85.9165C135.865 85.9165 135.181 85.9251 135.189 85.9338Z" fill="#5C0884"/>
<path d="M169.517 86.0204C169.491 86.081 169.482 91.606 169.491 98.3001L169.517 110.467L171.015 110.493L172.505 110.51V98.2135V85.9165H171.032C169.933 85.9165 169.543 85.9424 169.517 86.0204Z" fill="#5C0884"/>
<path d="M178.48 98.2135V110.51H179.952H181.424V105.011V99.5125H186.75H192.076V98.2135V96.9145H186.75H181.424V92.7145V88.5144H187.313H193.202V87.2154V85.9165H185.841H178.48V98.2135Z" fill="#5C0884"/>
<path d="M198.311 98.2135V110.51H205.802H213.293V109.212V107.913H207.274H201.255V103.712V99.5125H206.798H212.34V98.2135V96.9145H206.798H201.255V92.7145V88.5144H207.187H213.119V87.2154V85.9165H205.715H198.311V98.2135Z" fill="#5C0884"/>
</svg>
