<svg width="655" height="339" viewBox="0 0 655 339" fill="none" xmlns="http://www.w3.org/2000/svg">
<path d="M217.898 72.49L142.802 145.061L167.929 145.183L193.015 145.265V187.781V230.257L195.174 230.542C197.984 230.868 338.973 230.868 413.458 230.502L472.386 230.257V203.42V176.623L491.812 176.541L511.238 176.419L456.911 125.513C427.06 97.4949 402.462 74.5262 402.259 74.4855C402.096 74.404 398.756 77.3769 394.928 81.0829C391.059 84.8295 387.801 87.8024 387.638 87.7617C387.476 87.6803 366.339 67.9288 340.642 43.8606C314.986 19.7923 293.727 0.0408783 293.483 0.000152588C293.198 -0.0405731 259.193 32.5798 217.898 72.49ZM340.805 51.639L387.761 95.6623L389.675 93.9111C390.693 92.9337 393.951 89.7979 396.842 86.9472L402.136 81.7752L449.499 126.124C475.522 150.518 496.821 170.636 496.821 170.799C496.821 170.962 490.061 171.166 481.753 171.247L466.685 171.329V198.207V225.085H332.701H198.717V182.324V139.563L177.784 139.482L156.852 139.36L225.025 73.4674C262.532 37.2632 293.361 7.61565 293.524 7.61565C293.687 7.61565 314.945 27.4078 340.805 51.639Z" fill="white"/>
<path d="M233.536 74.689L173.753 132.437L189.595 132.64L205.436 132.844L205.559 175.482L205.64 218.162H225.392H245.143V196.374C245.143 171.206 245.306 172.55 241.478 169.74C235.817 165.627 232.396 158.622 232.355 151.17C232.315 145.672 233.699 141.07 236.591 137.161L237.894 135.409L239.849 139.971C242.089 145.183 242.903 146.201 245.754 147.545C249.582 149.337 253.492 148.686 256.546 145.753C258.053 144.287 258.664 143.31 259.193 141.477C260.007 138.627 259.845 137.568 257.89 132.314C257.116 130.237 256.587 128.405 256.709 128.242C257.523 127.468 263.876 130.156 266.727 132.518C272.306 137.079 275.279 143.554 275.279 150.966C275.279 155.242 274.546 158.174 272.225 163.184C269.985 168.03 268.519 171.695 267.664 174.587C267.094 176.501 266.971 179.799 266.849 197.474L266.686 218.162H278.048H289.411L290.062 215.393C291.773 208.347 291.895 203.42 290.551 194.745C289.533 187.903 289.859 182.283 291.65 175.686C292.587 172.224 293.117 171.695 296.171 171.166L297.678 170.881V127.387V83.8928L296.456 77.947L295.275 72.0012L296.375 63.9377L297.515 55.8742L300.854 55.7521C303.379 55.6706 304.194 55.7521 304.194 56.1593C304.194 56.4444 304.723 60.1503 305.375 64.3857L306.556 72.0419L305.782 77.0918C305.049 81.8565 305.008 84.4629 305.09 126.572L305.212 171.084L306.637 171.451C308.673 171.939 309.284 172.672 310.058 175.32C312.054 182.283 312.339 187.333 311.117 195.763C310.058 203.216 310.18 208.592 311.524 214.415L312.42 218.162H327.855H343.289L343.208 188.27C343.086 158.622 343.086 158.337 342.23 157.197C339.909 154.102 336.488 153.328 333.678 155.324C332.172 156.423 331.846 156.464 326.47 156.586C318.692 156.79 319.262 157.564 319.262 146.69C319.262 138.83 319.343 138.016 319.995 137.405C320.606 136.835 321.665 136.713 325.941 136.713C330.909 136.713 331.153 136.753 332.212 137.731C334.656 140.011 338.321 140.093 341.742 137.934L343.859 136.672L351.801 136.794C359.498 136.916 359.864 136.957 362.145 138.016C367.765 140.663 373.1 146.609 376.561 154.143C377.335 155.772 377.905 157.441 377.824 157.808C377.539 159.193 375.055 158.541 370.371 155.853C365.118 152.84 362.104 151.373 361.127 151.373C360.027 151.373 358.928 152.84 358.113 155.364C357.421 157.523 357.38 159.926 357.217 187.903L357.095 218.162H377.498H397.86V213.927C397.86 204.56 396.476 199.591 391.467 191.161C385.032 180.329 383.851 176.867 384.706 171.369C385.561 165.912 388.494 161.514 393.462 158.256C395.865 156.708 401.77 154.346 402.177 154.754C402.299 154.876 401.444 158.5 400.263 162.776C398.593 168.885 398.227 170.799 398.512 171.654C398.838 172.591 399.449 172.958 403.073 174.139C405.394 174.872 407.349 175.442 407.431 175.36C407.512 175.238 408.693 171.329 410.078 166.645C411.462 161.921 412.725 157.93 412.928 157.767C413.295 157.36 415.657 160.17 417.612 163.387C419.689 166.849 420.707 170.433 421.033 175.36L421.277 179.636L424.616 180.614L427.915 181.591L426.327 184.198C420.177 194.297 418.141 200.813 417.571 212.745L417.286 218.162H438.544H459.762L459.68 191.284L459.558 164.405L469.902 164.324L480.206 164.202L441.395 127.835C420.055 107.88 402.462 91.5083 402.259 91.5083C402.055 91.5083 398.756 94.5219 394.928 98.2278C388.127 104.825 387.964 104.947 387.15 104.255C386.702 103.848 365.525 84.0557 340.113 60.2318C314.66 36.4486 293.727 16.9822 293.605 16.9822C293.442 16.9822 266.401 42.9645 233.536 74.689Z" fill="white"/>
<path d="M0 301.278V339H4.51603H9.03205V324.256V309.513H18.2766H27.5478L35.4907 324.256L43.4336 339H48.6934H53.9532L53.6345 338.389C53.1297 337.433 37.9878 309.726 37.4299 308.796L36.9517 307.919L38.891 307.016C43.3804 304.944 46.5151 301.995 48.5075 297.957C50.4467 294.026 50.8452 292.113 50.8452 286.667C50.8452 281.221 50.4467 279.309 48.5075 275.377C45.1868 268.683 38.891 264.804 29.7527 263.821C28.3713 263.689 21.0925 263.556 13.6278 263.556H0V301.278ZM27.5743 271.791C35.6766 272.428 40.0598 275.722 41.6006 282.39C42.2647 285.153 42.0256 290.227 41.1224 292.697C39.4754 297.32 36.1017 299.87 30.3902 300.879C28.6369 301.172 25.8742 301.278 18.5688 301.278H9.03205V286.588C9.03205 278.485 9.11175 271.791 9.21801 271.711C9.48366 271.446 23.8553 271.499 27.5743 271.791Z" fill="#EAE2FF"/>
<path d="M66.1464 301.278V339H89.2579H112.369V335.015V331.031H93.9067H75.4441V318.147V305.263H92.4456H109.447V301.278V297.293H92.4456H75.4441V284.409V271.525H93.6411H111.865L111.785 267.594L111.705 263.689L88.9391 263.609L66.1464 263.556V301.278Z" fill="#EAE2FF"/>
<path d="M128.308 301.278V339H132.824H137.34V309.354C137.34 282.178 137.367 279.734 137.765 279.813C138.004 279.867 147.408 293.176 158.699 309.433L179.18 338.973L183.643 339H188.079V301.278V263.556H183.563H179.047V293.335C179.047 319.289 178.994 323.088 178.649 323.008C178.436 322.955 168.979 309.566 157.662 293.229L137.022 263.556H132.665H128.308V301.278Z" fill="#EAE2FF"/>
<path d="M202.159 267.54V271.525H213.98H225.801V305.263V339L230.397 338.947L234.966 338.867L235.046 305.183L235.099 271.525H246.92H258.742V267.54V263.556H230.45H202.159V267.54Z" fill="#EAE2FF"/>
<path d="M285.014 264.273C284.297 266.106 257.865 338.123 257.759 338.522C257.626 338.973 257.971 339 262.355 339H267.11L270.829 328.507C272.848 322.742 274.654 317.881 274.787 317.748C275.212 317.323 304.832 317.403 305.151 317.801C305.31 317.987 307.063 322.849 309.109 328.56L312.801 339H317.53C321.993 339 322.258 338.973 322.126 338.522C322.019 338.256 315.83 321.308 308.312 300.853L294.657 263.689L289.982 263.609L285.307 263.556L285.014 264.273ZM296.225 292.272C299.492 301.49 302.228 309.141 302.255 309.274C302.308 309.407 296.969 309.513 289.982 309.513C283.181 309.513 277.603 309.486 277.603 309.433C277.603 309.38 280.286 301.783 283.58 292.511C286.874 283.24 289.557 275.643 289.557 275.59C289.557 275.537 289.716 275.51 289.902 275.51C290.141 275.51 292.399 281.54 296.225 292.272Z" fill="#EAE2FF"/>
<path d="M334.186 301.278V339H356.235H378.284V335.015V331.031L360.831 330.977L343.351 330.898L343.271 297.213L343.218 263.556H338.702H334.186V301.278Z" fill="#EAE2FF"/>
<path d="M414.704 263.609C414.704 263.662 419.326 280.61 424.985 301.278L435.292 338.867L439.967 338.947L444.643 339L445.015 337.751C445.227 337.034 448.973 323.539 453.356 307.707C459.28 286.242 461.405 278.963 461.671 279.017C461.91 279.07 464.699 288.66 470.304 308.982L478.593 338.867L483.268 338.947L487.944 339L488.369 337.619C489.644 333.156 508.452 264.114 508.452 263.848C508.452 263.396 499.526 263.45 499.34 263.901C499.26 264.087 495.7 277.901 491.424 294.584C485.26 318.651 483.56 324.921 483.242 324.921C482.896 324.921 481.143 318.518 474.82 294.291L466.824 263.689L461.671 263.609L456.517 263.556L448.548 294.132C443.766 312.462 440.446 324.761 440.233 324.841C440.047 324.921 439.835 324.921 439.755 324.841C439.649 324.735 423.975 263.981 423.975 263.662C423.975 263.609 421.877 263.556 419.326 263.556C416.776 263.556 414.678 263.582 414.704 263.609Z" fill="#EAE2FF"/>
<path d="M520.007 263.875C519.928 264.06 519.901 281.009 519.928 301.544L520.007 338.867L524.603 338.947L529.172 339V301.278V263.556H524.656C521.282 263.556 520.087 263.635 520.007 263.875Z" fill="#EAE2FF"/>
<path d="M547.502 301.278V339H552.018H556.534V322.131V305.263H572.871H589.209V301.278V297.293H572.871H556.534V284.409V271.525H574.598H592.662V267.54V263.556H570.082H547.502V301.278Z" fill="#EAE2FF"/>
<path d="M608.335 301.278V339H631.314H654.293V335.015V331.031H635.83H617.367V318.147V305.263H634.369H651.37V301.278V297.293H634.369H617.367V284.409V271.525H635.564H653.761V267.54V263.556H631.048H608.335V301.278Z" fill="#EAE2FF"/>
</svg>
